<svg id="Capa_1" enable-background="new 0 0 512 512" height="512" viewBox="0 0 512 512" width="512" xmlns="http://www.w3.org/2000/svg"><g><g><g><g><g><g><g><circle cx="256" cy="256" fill="#1dd882" r="256"/></g></g></g></g></g></g><path d="m510.329 285.409-108.385-108.385-40.231 35.591-70.256-70.256-229.247 181.266 188.318 188.318c1.82.038 3.644.058 5.472.058 131.439-.001 239.742-99.058 254.329-226.592z" fill="#06b26b"/><g><path d="m296.565 177.024h-81.13v-17.198c0-17.92 14.527-32.447 32.447-32.447h16.236c17.92 0 32.447 14.527 32.447 32.447z" fill="#97ffc6"/></g><g><path d="m296.565 159.826c0-17.92-14.527-32.447-32.447-32.447h-7.997v49.646h40.445v-17.199z" fill="#6bf2a5"/></g><g><path d="m440.474 304.442h-368.948l17.308-88.851c6.589-33.827 36.221-58.244 70.684-58.244h192.964c34.463 0 64.095 24.417 70.684 58.244z" fill="#fff"/></g><g><path d="m423.166 215.591c-6.589-33.827-36.221-58.244-70.684-58.244h-96.362v147.095h184.353z" fill="#e9edf5"/></g><g><path d="m422.816 334.411h-333.632c-21.627 0-39.16-17.532-39.16-39.16v-5.204h411.952v5.204c0 21.628-17.532 39.16-39.16 39.16z" fill="#97ffc6"/></g><g><path d="m256.121 290.047v44.364h166.696c21.627 0 39.16-17.532 39.16-39.16v-5.204z" fill="#6bf2a5"/></g></g></svg>