<svg id="Capa_1" enable-background="new 0 0 512 512" height="512" viewBox="0 0 512 512" width="512" xmlns="http://www.w3.org/2000/svg"><g><path d="m142.5 395.741c0-4.962 4.037-9 9-9h321.181c19.63-34.749 30.819-74.711 30.819-117.241 0-133.929-110.81-242.5-247.5-242.5s-247.5 108.571-247.5 242.5c0 49.687 15.264 95.88 41.431 134.336l93.67-3.788c-.701-1.28-1.101-2.748-1.101-4.307z" fill="#09a76d"/><path d="m182.689 457.741c-3.87 0-7.299-2.465-8.531-6.133l-15.751-46.867h-6.907c-4.963 0-9-4.038-9-9s4.037-9 9-9h324c4.963 0 9 4.038 9 9s-4.037 9-9 9h-6.907l-15.751 46.867c-1.232 3.668-4.661 6.133-8.531 6.133z" fill="#d6effe"/><g><path d="m182.689 457.741c-3.866 0-7.3-2.469-8.531-6.133l-1.212-3.608c-1.158-.351-2.321-.679-3.485-1h-75.798l-5.149 1c44.075 39.724 102.879 64 167.486 64 59.15 0 113.443-20.341 156.017-54.259z" fill="#8bc727"/><g><path d="m294.5 137.911c0 2.228-.245 4.435-.708 6.593h134.401v-31.532c0-3.062-2.482-5.544-5.544-5.544h-134.496c-1.338 1.791-2.87 3.453-4.584 4.95l-.862.753.862.753c6.947 6.067 10.931 14.824 10.931 24.027z" fill="#fff"/><path d="m284.227 113.131c6.905 6.031 11.273 14.893 11.273 24.78 0 1.908-.172 3.774-.483 5.593h11.459v-30.532c0-3.062 2.482-5.544 5.544-5.544h-22.636c-1.496 2.094-3.222 4.013-5.157 5.703z" fill="#eaf6ff"/><g fill="#50bcfb"><path d="m434.476 295h-128.626l-7.35 1v90.741h143v-90.741z"/><path d="m440.804 183.437-12.61-39.932h-134.21c-.709 3.957-2.149 7.766-4.299 11.221l-.391.626 9.206 10.605v64.107l6.917 1h129.308c2.259-.321 4.519-.645 6.774-1v-42.111c.001-1.532-.234-3.055-.695-4.516z"/></g><path d="m351.681 200.056c-11.023 0-19.96-8.936-19.96-19.96 0-3.621.979-7.006 2.664-9.934-4.762 3.648-7.846 9.375-7.846 15.837 0 11.023 8.936 19.96 19.96 19.96 7.403 0 13.85-4.04 17.295-10.026-3.36 2.576-7.551 4.123-12.113 4.123z" fill="#35a9ef"/><path d="m298.5 230.064h143v65.936h-143z" fill="#fff"/><g><circle cx="351.681" cy="180.097" fill="#fff" r="19.96"/></g><g><path d="m342.5 180.097c0-9.153 6.169-16.849 14.571-19.203-1.717-.481-3.519-.757-5.389-.757-11.023 0-19.96 8.936-19.96 19.96 0 11.023 8.936 19.96 19.96 19.96 1.87 0 3.673-.276 5.389-.757-8.402-2.354-14.571-10.05-14.571-19.203z" fill="#eaf6ff"/></g></g><g><path d="m159.33 40.145.133-.003c.796 0 1.535.314 2.082.885s.829 1.327.794 2.126c-.487 11.198-5.955 22.808-15 31.854-2.149 2.149-4.499 4.139-6.982 5.916l-1.851 1.324 2.228.468c5.15 1.082 9.738 3.749 13.266 7.713l.276.311.415.023c1.146.064 2.212.172 3.259.331l1.529.231-.417-1.49c-1.621-5.791-1.539-11.721.219-16.791 4.169.323 8.415 1.782 12.326 4.243l1.024.645.439-1.128c4.433-11.389 15.146-19.337 27.296-20.25l1.098-.083-.188-1.085c-.318-1.838-.479-3.685-.479-5.488 0-9.239 3.953-17.57 10.251-23.4-6.018-6.622-14.7-10.78-24.353-10.78-15.41 0-28.341 10.597-31.914 24.901 1.519-.243 3.038-.407 4.549-.473z" fill="#8bc727"/></g><g><path d="m171.76 77.399c3.847 2.457 7.301 5.841 9.969 9.916 1.474 2.25 2.681 4.666 3.589 7.179l.94 2.604.94-2.604c.908-2.514 2.115-4.929 3.589-7.179 5.367-8.197 13.912-13.61 22.448-14.271 1.758 5.068 1.84 10.999.219 16.791l-.417 1.49 1.529-.231c1.712-.259 3.445-.391 5.151-.391 7.198 0 14.034 2.368 18.885 6.521-1.225 2.527-2.935 4.893-5.089 7.041l-.91.907 1.103.66c16.229 9.708 26.31 27.393 26.31 46.151 0 1.708-.088 3.471-.261 5.242l-.042.428 9.736 11.218 15.789-18.19 4.745 5.467c3.483-5.219 5.516-11.489 5.516-18.234 0-9.888-4.368-18.75-11.273-24.78 6.905-6.031 11.273-14.893 11.273-24.78 0-17.329-13.4-31.517-30.402-32.794.319-1.839.495-3.728.495-5.658 0-18.169-14.729-32.898-32.898-32.898s-32.898 14.729-32.898 32.898c0 1.931.176 3.819.495 5.658-13.233.99-24.282 9.808-28.531 21.839z" fill="#97d729"/><g><path d="m238.603 97.222c-1.421 2.932-3.487 5.612-6.026 7.92 2.69 1.516 5.24 3.252 7.618 5.192v-46.334c0-4.142-3.357-7.5-7.5-7.5s-7.5 3.358-7.5 7.5v27.173c5.118.879 9.81 2.97 13.408 6.049z" fill="#bbec6c"/></g></g><g><path d="m118.275 82.18c6.209-9.94 9.973-22.937 9.973-37.166 0-17.593-5.75-33.306-14.766-43.68-1.546-1.778-4.29-1.778-5.835 0-9.016 10.374-14.766 26.087-14.766 43.68 0 14.229 3.764 27.226 9.973 37.166z" fill="#017b4e"/><g fill="#026841"><path d="m81.342 82.535c1.363-.233 2.753-.355 4.16-.355h23.643c-1.569-9.604-6.573-19.531-14.784-27.742-9.582-9.582-21.502-14.813-32.517-15.292-2.289-.1-4.15 1.762-4.051 4.051.479 11.015 5.71 22.935 15.292 32.517 2.6 2.601 5.377 4.869 8.257 6.821z"/><path d="m135.629 82.18c1.406 0 2.796.123 4.159.355 2.88-1.952 5.657-4.22 8.258-6.821 9.582-9.582 14.813-21.502 15.292-32.517.1-2.289-1.762-4.151-4.051-4.051-11.015.479-22.935 5.71-32.517 15.292-8.211 8.211-13.216 18.138-14.784 27.742z"/></g><path d="m67.659 154.673 12.322 14.196 15.789-18.19 15.789 18.19 15.788-18.19 15.79 18.19 9.85-11.348 7.887-46.447c2.655-15.632-9.39-29.894-25.246-29.894h-50.126c-15.855 0-27.9 14.263-25.246 29.894z" fill="#fe860a"/><g><path d="m67.337 152.777 12.644 14.567 15.789-18.19 2.746 3.164-7.003-41.243c-2.654-15.632 9.39-29.894 25.246-29.894h-31.257c-15.855 0-27.9 14.263-25.246 29.894z" fill="#fe7701"/></g></g><g><path d="m233.306 104.444c-4.217 4.108-9.891 7.145-16.19 8.459-2.341.488-4.717.736-7.063.736-4.571 0-9.052-.951-12.956-2.75l-.433-.199-.427.209c-3.197 1.569-6.485 2.478-9.771 2.701l-.276.019-.14-.019c-3.286-.223-6.574-1.132-9.771-2.701l-.427-.209-.433.199c-3.904 1.799-8.385 2.75-12.957 2.75-2.345 0-4.721-.248-7.062-.736-6.3-1.314-11.974-4.351-16.191-8.459-16.513 9.454-27.71 27.246-27.71 47.537 0 5.065.712 9.97 2.015 14.634l13.832-15.937 15.79 18.19 15.789-18.19 15.788 18.19 15.789-18.19 15.789 18.19 15.789-18.19 15.789 18.19 15.789-18.19 6.93 7.984c.27-2.192.426-4.418.426-6.681.001-20.291-11.196-38.083-27.708-47.537z" fill="#fd4755"/><g><path d="m142.985 151.982c0-14.54 5.756-27.792 15.087-37.621-.954-.12-1.913-.278-2.876-.479-6.793-1.417-12.63-4.652-16.901-8.91-16.012 9.58-26.795 27.094-26.795 47.01 0 4.647.591 9.163 1.694 13.479l14.154-16.307 15.789 18.19 1.561-1.798c-1.117-4.342-1.713-8.887-1.713-13.564z" fill="#e41f2d"/></g><g><path d="m214.417 90.104c1.767-6.313 1.57-12.703-.498-18.104-8.826.402-18.033 5.701-23.969 14.767-1.56 2.382-2.782 4.868-3.692 7.387-.91-2.519-2.133-5.005-3.692-7.387-5.936-9.066-15.143-14.365-23.969-14.767-2.069 5.401-2.265 11.791-.498 18.104-9.892-1.498-19.29 1.279-25.407 6.863 3.6 8.068 11.897 14.702 22.505 16.915 7.445 1.553 14.711.647 20.642-2.085 3.289 1.614 6.738 2.57 10.144 2.801.005.014.009.029.015.043.087-.004.174-.016.261-.021.087.005.174.017.261.021.005-.014.009-.029.015-.043 3.407-.231 6.855-1.187 10.144-2.801 5.931 2.732 13.197 3.638 20.642 2.085 10.608-2.213 18.905-8.846 22.505-16.915-6.119-5.584-15.517-8.361-25.409-6.863z" fill="#017b4e"/></g><g><g><path d="m143.367 107.326c6.118-5.584 15.515-8.362 25.407-6.864-1.767-6.313-1.571-12.703.498-18.104 4.436.202 8.967 1.643 13.131 4.176-5.941-8.921-15.059-14.136-23.807-14.535-2.069 5.401-2.265 11.791-.498 18.104-9.892-1.498-19.29 1.279-25.407 6.864 2.296 5.146 6.51 9.703 12.009 12.907-.493-.831-.945-1.679-1.333-2.548z" fill="#026841"/></g></g></g><path d="m158.407 404.741h-6.907c-4.963 0-9-4.038-9-9 0-4.963 4.037-9 9-9h19.323l-.087-1.081c-.159-1.956-.236-3.687-.236-5.29 0-29.98 20.187-54.37 45-54.37s45 24.39 45 54.37c0 1.603-.077 3.333-.236 5.29l-.087 1.081h8.646l-.087-1.081c-.159-1.956-.236-3.687-.236-5.29 0-24.075 13.022-44.532 31-51.662v-163.125l-14.261-16.43-15.789 18.19-15.789-18.19-15.789 18.19-15.789-18.19-15.789 18.19-15.789-18.19-15.789 18.19-15.789-18.19-15.789 18.19-15.789-18.19-15.789 18.19-15.789-18.19-15.789 18.19-15.789-18.19-14.261 16.43v238.253c11.022 16.202 23.981 31.028 38.555 44.164h84.459z" fill="#ffbd86"/><g><g><path d="m91.931 153.577-11.95 13.767-15.789-18.19-14.261 16.43v238.253c11.023 16.201 23.982 31.027 38.556 44.163h3.444z" fill="#f6a96c"/></g></g><path d="m178.261 349.882c8.103-14.402 21.771-23.882 37.239-23.882 1.985 0 3.936.173 5.854.475 7.136-9.638 11.361-21.562 11.361-34.475 0-32.032-25.967-58-58-58-32.032 0-58 25.968-58 58s25.968 58 58 58c1.192 0 2.372-.047 3.546-.118z" fill="#fff"/><g><path d="m177.071 349.947c1.07-1.954 2.241-3.818 3.503-5.589-19.553-9.322-33.074-29.252-33.074-52.358 0-26.701 18.049-49.174 42.608-55.919-4.904-1.347-10.061-2.081-15.392-2.081-32.032 0-58 25.968-58 58s25.968 58 58 58c.789 0 1.574-.021 2.355-.053z" fill="#eaf6ff"/></g><g><g><g><path d="m261.188 386.741c.199-2.092.312-4.215.312-6.37 0-30.58-20.595-55.37-46-55.37s-46 24.79-46 55.37c0 2.156.113 4.279.312 6.37z" fill="#f6a96c"/></g><g><g><path d="m199.723 385.741c-.141-1.768-.223-3.557-.223-5.37 0-24.256 12.963-44.854 31-52.343-4.703-1.953-9.746-3.027-15-3.027-25.405 0-46 24.79-46 55.37 0 1.812.078 3.603.219 5.37z" fill="#d88a55"/></g></g><g><path d="m359.188 386.741c.199-2.092.312-4.215.312-6.37 0-30.58-20.595-55.37-46-55.37s-46 24.79-46 55.37c0 2.156.113 4.279.312 6.37z" fill="#f6a96c"/></g><g><g><path d="m297.723 385.741c-.141-1.768-.223-3.557-.223-5.37 0-24.256 12.963-44.854 31-52.343-4.703-1.953-9.746-3.027-15-3.027-25.405 0-46 24.79-46 55.37 0 1.812.078 3.603.219 5.37z" fill="#d88a55"/></g></g><g><path d="m457.188 386.741c.199-2.092.312-4.215.312-6.37 0-30.58-20.595-55.37-46-55.37s-46 24.79-46 55.37c0 2.156.113 4.279.312 6.37z" fill="#f6a96c"/></g><g><g><path d="m395.723 385.741c-.141-1.768-.223-3.557-.223-5.37 0-24.256 12.963-44.854 31-52.343-4.703-1.953-9.746-3.027-15-3.027-25.405 0-46 24.79-46 55.37 0 1.812.078 3.603.219 5.37z" fill="#d88a55"/></g></g></g><path d="m157.353 404.741 15.857 47.186c1.368 4.072 5.184 6.814 9.479 6.814h261.622c4.295 0 8.111-2.743 9.479-6.814l15.857-47.186z" fill="#d6effe"/><g><path d="m220.71 451.926-15.521-46.186h-47.5l15.521 46.186c1.368 4.072 5.184 6.814 9.479 6.814h47.5c-4.295.001-8.111-2.742-9.479-6.814z" fill="#b9e4fe"/></g><g><path d="m475.5 405.741h-324c-5.523 0-10-4.477-10-10 0-5.523 4.477-10 10-10h324c5.523 0 10 4.477 10 10 0 5.523-4.477 10-10 10z" fill="#eaf6ff"/></g><g><path d="m205.5 395.741c0-5.523 4.477-10 10-10h-64c-5.523 0-10 4.477-10 10s4.477 10 10 10h64c-5.523 0-10-4.477-10-10z" fill="#d6effe"/></g></g></g></g></svg>