<?xml version="1.0" encoding="iso-8859-1"?>
<!-- Generator: Adobe Illustrator 19.0.0, SVG Export Plug-In . SVG Version: 6.00 Build 0)  -->
<svg version="1.1" id="Capa_1" xmlns="http://www.w3.org/2000/svg" xmlns:xlink="http://www.w3.org/1999/xlink" x="0px" y="0px"
	 viewBox="0 0 512 512" style="enable-background:new 0 0 512 512;" xml:space="preserve">
<circle style="fill:#00F0FC;" cx="256" cy="256" r="256"/>
<path style="fill:#33CCDE;" d="M512,256c0-10.616-0.658-21.077-1.914-31.353L418.439,133L81.561,379l128.973,128.973
	C225.289,510.618,240.483,512,256,512C397.385,512,512,397.385,512,256z"/>
<polygon style="fill:#1E67F7;" points="319.334,417.133 293.542,397.133 267.75,417.133 267.75,370.712 319.334,370.712 "/>
<polygon style="fill:#0053BF;" points="293.542,397.133 319.334,417.133 319.334,370.712 293.542,370.712 "/>
<rect x="220.23" y="133" style="fill:#FF5B00;" width="198.21" height="246"/>
<rect x="220.23" y="256.5" style="fill:#E2330A;" width="198.21" height="122.5"/>
<rect x="81.56" y="133" style="fill:#FFFFFF;" width="166.87" height="246"/>
<rect x="81.56" y="256.5" style="fill:#E4E4E4;" width="166.87" height="122.5"/>
<path style="fill:#0AEA4F;" d="M357.604,276.125h15.789c15.575,0,28.201-12.626,28.201-28.201v-15.789h-15.789
	c-15.575,0-28.201,12.626-28.201,28.201V276.125z"/>
<path style="fill:#05C63B;" d="M357.875,276.125h15.519c15.575,0,28.201-12.626,28.201-28.201v-15.519L357.875,276.125z"/>
<g>
	<rect x="105.45" y="298.05" style="fill:#BFACA4;" width="119.08" height="20.58"/>
	<rect x="105.45" y="334.92" style="fill:#BFACA4;" width="119.08" height="20.58"/>
</g>
<g>
	<rect x="105.45" y="166.04" style="fill:#D1C1B8;" width="67.55" height="16.894"/>
	<rect x="105.45" y="196.31" style="fill:#D1C1B8;" width="67.55" height="16.894"/>
	<rect x="105.45" y="227.04" style="fill:#D1C1B8;" width="67.55" height="16.894"/>
</g>
<rect x="105.45" y="257.31" style="fill:#BFACA4;" width="67.55" height="16.894"/>
<path style="fill:#FFDD17;" d="M357.604,276.125H267.75l0,0c0-22.229,18.021-40.25,40.25-40.25h9.355
	C339.584,235.875,357.604,253.896,357.604,276.125L357.604,276.125z"/>
<path style="fill:#FFB81A;" d="M357.604,276.125c0-22.229-18.021-40.25-40.25-40.25h-5.235v40.25H357.604L357.604,276.125z"/>
<path style="fill:#FFFFFF;" d="M382.662,298.045h-96.825c-13.165,0-23.838-10.673-23.838-23.838l0,0h144.5l0,0
	C406.5,287.372,395.827,298.045,382.662,298.045z"/>
<path style="fill:#F0F0F0;" d="M334.143,274.207v23.838h48.52c13.165,0,23.838-10.672,23.838-23.838H334.143z"/>
<g>
</g>
<g>
</g>
<g>
</g>
<g>
</g>
<g>
</g>
<g>
</g>
<g>
</g>
<g>
</g>
<g>
</g>
<g>
</g>
<g>
</g>
<g>
</g>
<g>
</g>
<g>
</g>
<g>
</g>
</svg>
